%FSLAX36Y36*%
%MOMM*%
%LPD*%
%ADD11C,0.00100*%
G54D11*
G36*
X-5000000Y6775000D02*
X-5000000Y4475000D01*
X305000000Y4475000D01*
X305000000Y6775000D01*
X-5000000Y6775000D02*
G37*
G54D11*
G36*
X-5000000Y10275000D02*
X-5000000Y7975000D01*
X305000000Y7975000D01*
X305000000Y10275000D01*
X-5000000Y10275000D02*
G37*
G54D11*
G36*
X-5000000Y13775000D02*
X-5000000Y11475000D01*
X305000000Y11475000D01*
X305000000Y13775000D01*
X-5000000Y13775000D02*
G37*
G54D11*
G36*
X-5000000Y17275000D02*
X-5000000Y14975000D01*
X305000000Y14975000D01*
X305000000Y17275000D01*
X-5000000Y17275000D02*
G37*
G54D11*
G36*
X-5000000Y-4475000D02*
X-5000000Y-6775000D01*
X305000000Y-6775000D01*
X305000000Y-4475000D01*
X-5000000Y-4475000D02*
G37*
G54D11*
G36*
X-5000000Y-7975000D02*
X-5000000Y-10275000D01*
X305000000Y-10275000D01*
X305000000Y-7975000D01*
X-5000000Y-7975000D02*
G37*
G54D11*
G36*
X-5000000Y-11475000D02*
X-5000000Y-13775000D01*
X305000000Y-13775000D01*
X305000000Y-11475000D01*
X-5000000Y-11475000D02*
G37*
G54D11*
G36*
X-5000000Y-14975000D02*
X-5000000Y-17275000D01*
X305000000Y-17275000D01*
X305000000Y-14975000D01*
X-5000000Y-14975000D02*
G37*
M02*
