%FSLAX36Y36*%
%MOMM*%
%LPD*%
%ADD11C,0.00100*%
G54D11*
G36*
X-5000000Y7225000D02*
X-5000000Y4025000D01*
X305000000Y4025000D01*
X305000000Y7225000D01*
X-5000000Y7225000D02*
G37*
G54D11*
G36*
X-5000000Y10725000D02*
X-5000000Y7525000D01*
X305000000Y7525000D01*
X305000000Y10725000D01*
X-5000000Y10725000D02*
G37*
G54D11*
G36*
X-5000000Y14225000D02*
X-5000000Y11025000D01*
X305000000Y11025000D01*
X305000000Y14225000D01*
X-5000000Y14225000D02*
G37*
G54D11*
G36*
X-5000000Y17725000D02*
X-5000000Y14525000D01*
X305000000Y14525000D01*
X305000000Y17725000D01*
X-5000000Y17725000D02*
G37*
G54D11*
G36*
X-5000000Y-4025000D02*
X-5000000Y-7225000D01*
X305000000Y-7225000D01*
X305000000Y-4025000D01*
X-5000000Y-4025000D02*
G37*
G54D11*
G36*
X-5000000Y-7525000D02*
X-5000000Y-10725000D01*
X305000000Y-10725000D01*
X305000000Y-7525000D01*
X-5000000Y-7525000D02*
G37*
G54D11*
G36*
X-5000000Y-11025000D02*
X-5000000Y-14225000D01*
X305000000Y-14225000D01*
X305000000Y-11025000D01*
X-5000000Y-11025000D02*
G37*
G54D11*
G36*
X-5000000Y-14525000D02*
X-5000000Y-17725000D01*
X305000000Y-17725000D01*
X305000000Y-14525000D01*
X-5000000Y-14525000D02*
G37*
M02*
