M48
; DRILL file {KiCad 5.1.10} date Wed Jan 19 23:00:03 2022
; FORMAT={-:-/ absolute / metric / decimal}
; #@! TF.CreationDate,2022-01-19T23:00:03-08:00
; #@! TF.GenerationSoftware,Kicad,Pcbnew,5.1.10
FMAT,2
METRIC
T1C0.500
%
G90
G05
T1
X-1.0Y0.0
X-2.0Y0.0
X-3.0Y0.0
X-4.0Y0.0
X-5.0Y0.0
X0.0Y0.0
X1.0Y0.0
X2.0Y0.0
X3.0Y0.0
X4.0Y0.0
X5.0Y0.0
X6.0Y0.0
X7.0Y0.0
X8.0Y0.0
X9.0Y0.0
X10.0Y0.0
X11.0Y0.0
X12.0Y0.0
X13.0Y0.0
X14.0Y0.0
X15.0Y0.0
X16.0Y0.0
X17.0Y0.0
X18.0Y0.0
X19.0Y0.0
X20.0Y0.0
X21.0Y0.0
X22.0Y0.0
X23.0Y0.0
X24.0Y0.0
X25.0Y0.0
X26.0Y0.0
X27.0Y0.0
X28.0Y0.0
X29.0Y0.0
X30.0Y0.0
X31.0Y0.0
X32.0Y0.0
X33.0Y0.0
X34.0Y0.0
X35.0Y0.0
X36.0Y0.0
X37.0Y0.0
X38.0Y0.0
X39.0Y0.0
X40.0Y0.0
X41.0Y0.0
X42.0Y0.0
X43.0Y0.0
X44.0Y0.0
X45.0Y0.0
X46.0Y0.0
X47.0Y0.0
X48.0Y0.0
X49.0Y0.0
X50.0Y0.0
X51.0Y0.0
X52.0Y0.0
X53.0Y0.0
X54.0Y0.0
X55.0Y0.0
X56.0Y0.0
X57.0Y0.0
X58.0Y0.0
X59.0Y0.0
X60.0Y0.0
X61.0Y0.0
X62.0Y0.0
X63.0Y0.0
X64.0Y0.0
X65.0Y0.0
X66.0Y0.0
X67.0Y0.0
X68.0Y0.0
X69.0Y0.0
X70.0Y0.0
X71.0Y0.0
X72.0Y0.0
X73.0Y0.0
X74.0Y0.0
X75.0Y0.0
X76.0Y0.0
X77.0Y0.0
X78.0Y0.0
X79.0Y0.0
X80.0Y0.0
X81.0Y0.0
X82.0Y0.0
X83.0Y0.0
X84.0Y0.0
X85.0Y0.0
X86.0Y0.0
X87.0Y0.0
X88.0Y0.0
X89.0Y0.0
X90.0Y0.0
X91.0Y0.0
X92.0Y0.0
X93.0Y0.0
X94.0Y0.0
X95.0Y0.0
X96.0Y0.0
X97.0Y0.0
X98.0Y0.0
X99.0Y0.0
X100.0Y0.0
X101.0Y0.0
X102.0Y0.0
X103.0Y0.0
X104.0Y0.0
X105.0Y0.0
X106.0Y0.0
X107.0Y0.0
X108.0Y0.0
X109.0Y0.0
X110.0Y0.0
X111.0Y0.0
X112.0Y0.0
X113.0Y0.0
X114.0Y0.0
X115.0Y0.0
X116.0Y0.0
X117.0Y0.0
X118.0Y0.0
X119.0Y0.0
X120.0Y0.0
X121.0Y0.0
X122.0Y0.0
X123.0Y0.0
X124.0Y0.0
X125.0Y0.0
X126.0Y0.0
X127.0Y0.0
X128.0Y0.0
X129.0Y0.0
X130.0Y0.0
X131.0Y0.0
X132.0Y0.0
X133.0Y0.0
X134.0Y0.0
X135.0Y0.0
X136.0Y0.0
X137.0Y0.0
X138.0Y0.0
X139.0Y0.0
X140.0Y0.0
X141.0Y0.0
X142.0Y0.0
X143.0Y0.0
X144.0Y0.0
X145.0Y0.0
X146.0Y0.0
X147.0Y0.0
X148.0Y0.0
X149.0Y0.0
X150.0Y0.0
X151.0Y0.0
X152.0Y0.0
X153.0Y0.0
X154.0Y0.0
X155.0Y0.0
X156.0Y0.0
X157.0Y0.0
X158.0Y0.0
X159.0Y0.0
X160.0Y0.0
X161.0Y0.0
X162.0Y0.0
X163.0Y0.0
X164.0Y0.0
X165.0Y0.0
X166.0Y0.0
X167.0Y0.0
X168.0Y0.0
X169.0Y0.0
X170.0Y0.0
X171.0Y0.0
X172.0Y0.0
X173.0Y0.0
X174.0Y0.0
X175.0Y0.0
X176.0Y0.0
X177.0Y0.0
X178.0Y0.0
X179.0Y0.0
X180.0Y0.0
X181.0Y0.0
X182.0Y0.0
X183.0Y0.0
X184.0Y0.0
X185.0Y0.0
X186.0Y0.0
X187.0Y0.0
X188.0Y0.0
X189.0Y0.0
X190.0Y0.0
X191.0Y0.0
X192.0Y0.0
X193.0Y0.0
X194.0Y0.0
X195.0Y0.0
X196.0Y0.0
X197.0Y0.0
X198.0Y0.0
X199.0Y0.0
X200.0Y0.0
X201.0Y0.0
X202.0Y0.0
X203.0Y0.0
X204.0Y0.0
X205.0Y0.0
X206.0Y0.0
X207.0Y0.0
X208.0Y0.0
X209.0Y0.0
X210.0Y0.0
X211.0Y0.0
X212.0Y0.0
X213.0Y0.0
X214.0Y0.0
X215.0Y0.0
X216.0Y0.0
X217.0Y0.0
X218.0Y0.0
X219.0Y0.0
X220.0Y0.0
X221.0Y0.0
X222.0Y0.0
X223.0Y0.0
X224.0Y0.0
X225.0Y0.0
X226.0Y0.0
X227.0Y0.0
X228.0Y0.0
X229.0Y0.0
X230.0Y0.0
X231.0Y0.0
X232.0Y0.0
X233.0Y0.0
X234.0Y0.0
X235.0Y0.0
X236.0Y0.0
X237.0Y0.0
X238.0Y0.0
X239.0Y0.0
X240.0Y0.0
X241.0Y0.0
X242.0Y0.0
X243.0Y0.0
X244.0Y0.0
X245.0Y0.0
X246.0Y0.0
X247.0Y0.0
X248.0Y0.0
X249.0Y0.0
X250.0Y0.0
X251.0Y0.0
X252.0Y0.0
X253.0Y0.0
X254.0Y0.0
X255.0Y0.0
X256.0Y0.0
X257.0Y0.0
X258.0Y0.0
X259.0Y0.0
X260.0Y0.0
X261.0Y0.0
X262.0Y0.0
X263.0Y0.0
X264.0Y0.0
X265.0Y0.0
X266.0Y0.0
X267.0Y0.0
X268.0Y0.0
X269.0Y0.0
X270.0Y0.0
X271.0Y0.0
X272.0Y0.0
X273.0Y0.0
X274.0Y0.0
X275.0Y0.0
X276.0Y0.0
X277.0Y0.0
X278.0Y0.0
X279.0Y0.0
X280.0Y0.0
X281.0Y0.0
X282.0Y0.0
X283.0Y0.0
X284.0Y0.0
X285.0Y0.0
X286.0Y0.0
X287.0Y0.0
X288.0Y0.0
X289.0Y0.0
X290.0Y0.0
X291.0Y0.0
X292.0Y0.0
X293.0Y0.0
X294.0Y0.0
X295.0Y0.0
X296.0Y0.0
X297.0Y0.0
X298.0Y0.0
X299.0Y0.0
X300.0Y0.0
X301.0Y0.0
X302.0Y0.0
X303.0Y0.0
X304.0Y0.0
T0
M30
